<svg width="8402" height="8379" viewBox="0 0 8402 8379" fill="none" xmlns="http://www.w3.org/2000/svg">
<path fill-rule="evenodd" clip-rule="evenodd" d="M3847.44 8.82973C3625.48 30.4646 3412.27 68.4887 3179.28 128.029C2909 197.097 2818.47 228.024 2510.73 356.41C2244.04 467.667 2153.54 517.679 1862.75 714.482C1593.19 896.926 1476.16 990.726 1283.54 1178.67C917.038 1536.31 684.395 1850.19 443.574 2311.9C288.365 2609.52 218.145 2797.9 128.222 3158C21.1002 3586.98 -0.365684 3761.5 0.00467291 4200.36C0.389844 4670.53 19.9595 4813.97 150.992 5306.67C265.417 5736.91 461.085 6142.49 768.733 6587.13C900.728 6777.9 1132.82 7058.4 1217.59 7129.59C1244.39 7152.1 1326.33 7227.34 1399.66 7296.78C1629.52 7514.46 1959.12 7745.53 2244.07 7888.76C2952.2 8244.69 3606.81 8398.84 4317.29 8376.97C4710.3 8364.88 5030.85 8311.6 5419.19 8193.86C5627.26 8130.76 5779.65 8068.63 6051.34 7936.15C6444 7744.68 6676.37 7585.58 7029.09 7266.74C7288.99 7031.81 7394.04 6914.94 7605.69 6625.24C7773.74 6395.19 7843.34 6279.85 7984.64 5997.21C8112.83 5740.78 8145.36 5656.55 8229.73 5362.64C8452.78 4585.64 8458.96 3881.32 8249.83 3076.5C8137.71 2645.08 7993.04 2334.32 7680.69 1853.99C7536.12 1631.68 7417.81 1487.5 7199.45 1267.49C6800.73 865.748 6330.64 545.078 5836.54 337.754C5481.96 188.977 5137.69 92.213 4774.83 39.3558C4536.46 4.63632 4053.65 -11.264 3847.44 8.82973ZM3755.13 271.101C3441.96 310.918 3152.07 372.888 2896.03 454.76C2535.88 569.928 1992.6 878.106 1640.95 1166.69C1527.8 1259.55 1439.66 1348.83 1133 1681.12C902.995 1930.35 608.398 2449.12 436.745 2907.19C275.299 3337.97 186.694 3950.73 220.293 4403.93C266.943 5033.2 409.96 5512.56 720.423 6080.12C867.5 6348.98 940.415 6457.35 1112.35 6662.55C1373.84 6974.64 1498.44 7095.13 1775.02 7303.32C2195.16 7619.57 2472.86 7766.9 2951.84 7927.62C3411.07 8081.71 3805.94 8138.54 4318.07 8124.23C4666.74 8114.49 4848.1 8091.48 5140.27 8019.89C5403.2 7955.46 5854.3 7784.56 6070.48 7667.45C6399.79 7489.07 6826.67 7169.45 7031.47 6947.91C7414.59 6533.5 7553.56 6338.11 7766.69 5914.23C8036.83 5376.97 8177.19 4796.19 8177.19 4215.76C8177.19 3475.96 7998.06 2828.56 7612.89 2176.26C7447.4 1896.01 7355.74 1776.09 7089.09 1490.94C6855.09 1240.73 6720.24 1126.4 6424.56 927.614C5982.61 630.491 5540.52 435.377 5103.23 344.437C4750.9 271.16 4637.07 260.861 4205.07 263.232C3982.04 264.447 3779.57 267.989 3755.13 271.101ZM4123.74 2014.75C4082.04 2034.61 4002.04 2083.95 3945.97 2124.42C3889.9 2164.88 3777.35 2236.91 3695.87 2284.51C3614.39 2332.09 3434.4 2448.97 3295.89 2544.23C3157.37 2639.48 2982.89 2754.41 2908.15 2799.64C2833.4 2844.86 2653.41 2960.02 2508.17 3055.55C2362.91 3151.08 2154.08 3287.7 2044.08 3359.13C1934.08 3430.57 1814.09 3515.68 1777.42 3548.26C1698.02 3618.81 1623.78 3737.17 1575.55 3870.09L1540.39 3966.96V4912.34C1540.39 5798.42 1542.14 5862.79 1568.2 5938.56C1651.87 6181.83 1764.36 6294.55 1972.42 6343.62C2047.5 6361.31 2184.98 6365.74 2658.87 6365.74C2984.79 6365.74 3258.78 6360.84 3267.74 6354.85C3319.09 6320.55 3322.88 6253.48 3276.52 6199.48C3255.98 6175.55 3206.35 6173.55 2633.76 6173.55C2032.3 6173.55 2011.36 6172.58 1950.9 6142.31C1870.26 6101.93 1797.84 6033.13 1757.6 5958.68C1725.69 5899.63 1725.57 5895.73 1725.57 4921.39V3943.38L1761.33 3869.29C1813.35 3761.5 1996.63 3588.39 2153.51 3498.83C2224.9 3458.08 2462.17 3308.04 2680.75 3165.41C2899.35 3022.79 3127.17 2875.23 3187.05 2837.51C3246.91 2799.79 3403.47 2697.73 3534.96 2610.7L3774.03 2452.49L3919.18 2554.19C3999.02 2610.11 4066.76 2663.19 4069.74 2672.14C4072.73 2681.09 4016.48 2726.32 3944.78 2772.65C3873.07 2818.99 3614.39 2988.32 3369.96 3148.95C3125.52 3309.58 2898.86 3456.8 2866.27 3476.11C2542.23 3668.13 2319.05 3860.68 2246.13 4011.14C2184.13 4139.12 2175.63 4280.79 2180.46 5104.49C2184.7 5826.31 2185.62 5846.89 2214.44 5868.67C2248.4 5894.32 2293.29 5897.9 2325.55 5877.51C2344.72 5865.4 2348.8 5749.18 2355.18 5029.37L2362.59 4195.29L2401.99 4111.2C2466.7 3973.15 2546.55 3902.29 2898.51 3670.62C3239.58 3446.1 3624.35 3197.2 3719.49 3139.51L3774.42 3106.21L3916.62 3211.05C3994.84 3268.73 4058.82 3321.02 4058.82 3327.28C4058.82 3347.53 4010.84 3381.57 3784.76 3521.66C3395.04 3763.19 3090.75 3974.73 3009.56 4060.62C2966.54 4106.11 2913.37 4181.7 2891.4 4228.59L2851.46 4313.84L2847.37 5082.41C2844.38 5644.66 2847.84 5856.48 2860.29 5871.49C2882.33 5898.06 2948.98 5897.79 2985.66 5870.97C3013.29 5850.77 3014.71 5820.75 3021.82 5104.12C3029.22 4359.06 3029.26 4358.22 3063.61 4293.85C3125.73 4177.41 3211.76 4102.93 3471.9 3940.4C3611.39 3853.25 3805.5 3727.42 3903.27 3660.76C4001.05 3594.12 4119.25 3518.18 4165.95 3492.03L4250.83 3444.46L4332.4 3491.14C4377.26 3516.8 4465.71 3575.17 4528.97 3620.83C4592.23 3666.47 4730.65 3760.17 4836.57 3829.01C5203.08 4067.23 5294.79 4147.71 5393.35 4317.54C5427.97 4377.19 5481.34 4381.53 5533.88 4328.97C5562.15 4300.7 5568.49 4282.78 5561.41 4251.17C5545.6 4180.7 5423.89 4015.25 5343.24 3954.63C5193.48 3842.05 4968.09 3686.52 4821.76 3594.78C4740.28 3543.68 4508.72 3391.74 4307.18 3257.11C4001.76 3053.09 3943.7 3008.77 3958.46 2990.99C3982.32 2962.21 4125.56 2865.89 4203.22 2826.4L4266.12 2794.41L4343.95 2833.57C4386.75 2855.12 4465.1 2903.9 4518.07 2942C4661.23 3044.96 5248.56 3432.5 5384.7 3513.85C5548.64 3611.8 6001.02 3927.81 6047.75 3977.02C6068.87 3999.27 6112.35 4060.82 6144.35 4113.79C6192.45 4193.41 6210.12 4210.88 6246.21 4214.54C6275.53 4217.51 6298.94 4208.95 6317.39 4188.56C6341.96 4161.4 6342.9 4151.44 6326.31 4095.22C6271.77 3910.36 6178.82 3813.64 5849.6 3599.18C5727.36 3519.53 5439.41 3330.79 5209.73 3179.74C4980.05 3028.68 4758.8 2885.76 4718.06 2862.11C4597.23 2791.98 3991.66 2384 3970.44 2358.42C3959.7 2345.47 3953.52 2332.47 3956.71 2329.55C3989.45 2299.66 4182.24 2187.53 4224.52 2173.81C4298.3 2149.88 4371.98 2171.11 4477.59 2246.75C4523.35 2279.53 4646.18 2360.26 4750.53 2426.14C4854.88 2492.01 5003.6 2591.25 5081.01 2646.65C5158.41 2702.06 5291.74 2789.44 5377.29 2840.85C5462.85 2892.24 5579.51 2966.74 5636.54 3006.41C5814.46 3130.13 6251.35 3419.08 6459.51 3550.69C6715.14 3712.32 6824.25 3818.92 6869.23 3951.01C6887.21 4003.87 6909.85 4089.27 6919.51 4140.78C6932.85 4211.99 6945.64 4240.07 6972.81 4257.88C7005.99 4279.62 7011.44 4279.18 7048.45 4251.65C7123.2 4196.06 7101.72 4031.74 6989.86 3803.49C6911.82 3644.24 6834.38 3567.2 6636.29 3451.65C6550.62 3401.66 6437.29 3328.92 6384.44 3289.98C6293.85 3223.22 5811.41 2903.37 5518.03 2715.54C5444.7 2668.6 5263.97 2548.91 5116.42 2449.55C4968.85 2350.2 4785.52 2230.67 4709.02 2183.93C4632.51 2137.21 4530.78 2074.02 4482.94 2043.54C4408.89 1996.35 4381.39 1987.41 4297.76 1983.38C4217.84 1979.51 4185.46 1985.35 4123.74 2014.75Z" fill="#E56232"/>
<path fill-rule="evenodd" clip-rule="evenodd" d="M3847.44 8.82973C3625.48 30.4646 3412.27 68.4887 3179.28 128.029C2909 197.097 2818.47 228.024 2510.73 356.41C2244.04 467.667 2153.54 517.679 1862.75 714.482C1593.19 896.926 1476.16 990.726 1283.54 1178.67C917.038 1536.31 684.395 1850.19 443.574 2311.9C288.365 2609.52 218.145 2797.9 128.222 3158C21.1002 3586.98 -0.365684 3761.5 0.00467291 4200.36C0.389844 4670.53 19.9595 4813.97 150.992 5306.67C265.417 5736.91 461.085 6142.49 768.733 6587.13C900.728 6777.9 1132.82 7058.4 1217.59 7129.59C1244.39 7152.1 1326.33 7227.34 1399.66 7296.78C1629.52 7514.46 1959.12 7745.53 2244.07 7888.76C2952.2 8244.69 3606.81 8398.84 4317.29 8376.97C4710.3 8364.88 5030.85 8311.6 5419.19 8193.86C5627.26 8130.76 5779.65 8068.63 6051.34 7936.15C6444 7744.68 6676.37 7585.58 7029.09 7266.74C7288.99 7031.81 7394.04 6914.94 7605.69 6625.24C7773.74 6395.19 7843.34 6279.85 7984.64 5997.21C8112.83 5740.78 8145.36 5656.55 8229.73 5362.64C8452.78 4585.64 8458.96 3881.32 8249.83 3076.5C8137.71 2645.08 7993.04 2334.32 7680.69 1853.99C7536.12 1631.68 7417.81 1487.5 7199.45 1267.49C6800.73 865.748 6330.64 545.078 5836.54 337.754C5481.96 188.977 5137.69 92.213 4774.83 39.3558C4536.46 4.63632 4053.65 -11.264 3847.44 8.82973ZM3755.13 271.101C3441.96 310.918 3152.07 372.888 2896.03 454.76C2535.88 569.928 1992.6 878.106 1640.95 1166.69C1527.8 1259.55 1439.66 1348.83 1133 1681.12C902.995 1930.35 608.398 2449.12 436.745 2907.19C275.299 3337.97 186.694 3950.73 220.293 4403.93C266.943 5033.2 409.96 5512.56 720.423 6080.12C867.5 6348.98 940.415 6457.35 1112.35 6662.55C1373.84 6974.64 1498.44 7095.13 1775.02 7303.32C2195.16 7619.57 2472.86 7766.9 2951.84 7927.62C3411.07 8081.71 3805.94 8138.54 4318.07 8124.23C4666.74 8114.49 4848.1 8091.48 5140.27 8019.89C5403.2 7955.46 5854.3 7784.56 6070.48 7667.45C6399.79 7489.07 6826.67 7169.45 7031.47 6947.91C7414.59 6533.5 7553.56 6338.11 7766.69 5914.23C8036.83 5376.97 8177.19 4796.19 8177.19 4215.76C8177.19 3475.96 7998.06 2828.56 7612.89 2176.26C7447.4 1896.01 7355.74 1776.09 7089.09 1490.94C6855.09 1240.73 6720.24 1126.4 6424.56 927.614C5982.61 630.491 5540.52 435.377 5103.23 344.437C4750.9 271.16 4637.07 260.861 4205.07 263.232C3982.04 264.447 3779.57 267.989 3755.13 271.101ZM4123.74 2014.75C4082.04 2034.61 4002.04 2083.95 3945.97 2124.42C3889.9 2164.88 3777.35 2236.91 3695.87 2284.51C3614.39 2332.09 3434.4 2448.97 3295.89 2544.23C3157.37 2639.48 2982.89 2754.41 2908.15 2799.64C2833.4 2844.86 2653.41 2960.02 2508.17 3055.55C2362.91 3151.08 2154.08 3287.7 2044.08 3359.13C1934.08 3430.57 1814.09 3515.68 1777.42 3548.26C1698.02 3618.81 1623.78 3737.17 1575.55 3870.09L1540.39 3966.96V4912.34C1540.39 5798.42 1542.14 5862.79 1568.2 5938.56C1651.87 6181.83 1764.36 6294.55 1972.42 6343.62C2047.5 6361.31 2184.98 6365.74 2658.87 6365.74C2984.79 6365.74 3258.78 6360.84 3267.74 6354.85C3319.09 6320.55 3322.88 6253.48 3276.52 6199.48C3255.98 6175.55 3206.35 6173.55 2633.76 6173.55C2032.3 6173.55 2011.36 6172.58 1950.9 6142.31C1870.26 6101.93 1797.84 6033.13 1757.6 5958.68C1725.69 5899.63 1725.57 5895.73 1725.57 4921.39V3943.38L1761.33 3869.29C1813.35 3761.5 1996.63 3588.39 2153.51 3498.83C2224.9 3458.08 2462.17 3308.04 2680.75 3165.41C2899.35 3022.79 3127.17 2875.23 3187.05 2837.51C3246.91 2799.79 3403.47 2697.73 3534.96 2610.7L3774.03 2452.49L3919.18 2554.19C3999.02 2610.11 4066.76 2663.19 4069.74 2672.14C4072.73 2681.09 4016.48 2726.32 3944.78 2772.65C3873.07 2818.99 3614.39 2988.32 3369.96 3148.95C3125.52 3309.58 2898.86 3456.8 2866.27 3476.11C2542.23 3668.13 2319.05 3860.68 2246.13 4011.14C2184.13 4139.12 2175.63 4280.79 2180.46 5104.49C2184.7 5826.31 2185.62 5846.89 2214.44 5868.67C2248.4 5894.32 2293.29 5897.9 2325.55 5877.51C2344.72 5865.4 2348.8 5749.18 2355.18 5029.37L2362.59 4195.29L2401.99 4111.2C2466.7 3973.15 2546.55 3902.29 2898.51 3670.62C3239.58 3446.1 3624.35 3197.2 3719.49 3139.51L3774.42 3106.21L3916.62 3211.05C3994.84 3268.73 4058.82 3321.02 4058.82 3327.28C4058.82 3347.53 4010.84 3381.57 3784.76 3521.66C3395.04 3763.19 3090.75 3974.73 3009.56 4060.62C2966.54 4106.11 2913.37 4181.7 2891.4 4228.59L2851.46 4313.84L2847.37 5082.41C2844.38 5644.66 2847.84 5856.48 2860.29 5871.49C2882.33 5898.06 2948.98 5897.79 2985.66 5870.97C3013.29 5850.77 3014.71 5820.75 3021.82 5104.12C3029.22 4359.06 3029.26 4358.22 3063.61 4293.85C3125.73 4177.41 3211.76 4102.93 3471.9 3940.4C3611.39 3853.25 3805.5 3727.42 3903.27 3660.76C4001.05 3594.12 4119.25 3518.18 4165.95 3492.03L4250.83 3444.46L4332.4 3491.14C4377.26 3516.8 4465.71 3575.17 4528.97 3620.83C4592.23 3666.47 4730.65 3760.17 4836.57 3829.01C5203.08 4067.23 5294.79 4147.71 5393.35 4317.54C5427.97 4377.19 5481.34 4381.53 5533.88 4328.97C5562.15 4300.7 5568.49 4282.78 5561.41 4251.17C5545.6 4180.7 5423.89 4015.25 5343.24 3954.63C5193.48 3842.05 4968.09 3686.52 4821.76 3594.78C4740.28 3543.68 4508.72 3391.74 4307.18 3257.11C4001.76 3053.09 3943.7 3008.77 3958.46 2990.99C3982.32 2962.21 4125.56 2865.89 4203.22 2826.4L4266.12 2794.41L4343.95 2833.57C4386.75 2855.12 4465.1 2903.9 4518.07 2942C4661.23 3044.96 5248.56 3432.5 5384.7 3513.85C5548.64 3611.8 6001.02 3927.81 6047.75 3977.02C6068.87 3999.27 6112.35 4060.82 6144.35 4113.79C6192.45 4193.41 6210.12 4210.88 6246.21 4214.54C6275.53 4217.51 6298.94 4208.95 6317.39 4188.56C6341.96 4161.4 6342.9 4151.44 6326.31 4095.22C6271.77 3910.36 6178.82 3813.64 5849.6 3599.18C5727.36 3519.53 5439.41 3330.79 5209.73 3179.74C4980.05 3028.68 4758.8 2885.76 4718.06 2862.11C4597.23 2791.98 3991.66 2384 3970.44 2358.42C3959.7 2345.47 3953.52 2332.47 3956.71 2329.55C3989.45 2299.66 4182.24 2187.53 4224.52 2173.81C4298.3 2149.88 4371.98 2171.11 4477.59 2246.75C4523.35 2279.53 4646.18 2360.26 4750.53 2426.14C4854.88 2492.01 5003.6 2591.25 5081.01 2646.65C5158.41 2702.06 5291.74 2789.44 5377.29 2840.85C5462.85 2892.24 5579.51 2966.74 5636.54 3006.41C5814.46 3130.13 6251.35 3419.08 6459.51 3550.69C6715.14 3712.32 6824.25 3818.92 6869.23 3951.01C6887.21 4003.87 6909.85 4089.27 6919.51 4140.78C6932.85 4211.99 6945.64 4240.07 6972.81 4257.88C7005.99 4279.62 7011.44 4279.18 7048.45 4251.65C7123.2 4196.06 7101.72 4031.74 6989.86 3803.49C6911.82 3644.24 6834.38 3567.2 6636.29 3451.65C6550.62 3401.66 6437.29 3328.92 6384.44 3289.98C6293.85 3223.22 5811.41 2903.37 5518.03 2715.54C5444.7 2668.6 5263.97 2548.91 5116.42 2449.55C4968.85 2350.2 4785.52 2230.67 4709.02 2183.93C4632.51 2137.21 4530.78 2074.02 4482.94 2043.54C4408.89 1996.35 4381.39 1987.41 4297.76 1983.38C4217.84 1979.51 4185.46 1985.35 4123.74 2014.75Z" fill="white"/>
</svg>
