<svg width="375" height="186" viewBox="0 0 375 186" fill="none" xmlns="http://www.w3.org/2000/svg">
<path fill-rule="evenodd" clip-rule="evenodd" d="M79.6527 87.7169C72.9967 91.0339 68.8287 96.112 67.3547 102.698C65.1847 112.392 68.1417 120.959 75.7247 126.956C82.2357 132.106 90.9677 133.163 101.708 130.102L105.458 129.033V123.012V116.991L102.251 119.275C98.3957 122.02 88.3437 122.953 84.5537 120.918C80.8437 118.925 78.2877 114.796 77.7367 109.907C76.3497 97.606 89.0067 90.228 100.708 96.517L105.458 99.071V93.612C105.458 88.284 105.371 88.118 101.836 86.64C95.9217 84.17 85.7847 84.6619 79.6527 87.7169ZM123.958 87.013C114.998 91.141 110.458 98.4129 110.458 108.637C110.458 116.171 111.947 119.82 117.301 125.407C123.587 131.968 133.956 133.783 143.896 130.064C155.318 125.791 161.296 112.853 157.313 101.026C155.555 95.804 150.022 89.612 145.007 87.255C139.188 84.52 129.61 84.41 123.958 87.013ZM165.458 108.127V131.127H170.428H175.398L175.678 118.567C175.956 106.075 175.969 106.017 177.96 107.817C190.497 119.153 205.389 132.127 205.862 132.127C206.19 132.127 206.458 121.777 206.458 109.127V86.127H201.458H196.458V98.127C196.458 104.727 196.121 110.115 195.708 110.1C195.295 110.085 188.658 104.463 180.958 97.608C173.258 90.752 166.621 85.1399 166.208 85.1349C165.795 85.1309 165.458 95.477 165.458 108.127ZM220.958 86.9689C216.84 89.4859 215.455 91.3719 214.812 95.3349C213.965 100.555 216.507 105.37 221.879 108.724C231.456 114.701 232.797 115.669 233.859 117.377C235.614 120.198 233.403 122.579 228.701 122.93C225.289 123.185 221.621 122.133 216.208 119.346C215.795 119.134 215.458 121.232 215.458 124.008C215.458 129.971 216.696 130.986 225.018 131.845C237.126 133.095 244.458 128.009 244.458 118.359C244.458 111.964 241.885 108.657 233.08 103.732C225.815 99.6699 224.172 98.0349 225.051 95.7449C226.042 93.1619 230.387 92.632 235.551 94.466C238.122 95.38 240.464 96.127 240.754 96.127C241.043 96.127 241.208 94.228 241.119 91.906C240.989 88.493 240.479 87.443 238.458 86.421C234.616 84.478 224.515 84.7939 220.958 86.9689ZM257.458 87.015C257.458 88.736 254.562 104.56 250.902 122.835C250.108 126.799 249.458 130.311 249.458 130.64C249.458 130.968 251.585 131.099 254.184 130.932L258.909 130.627L260.812 120.877C261.859 115.514 263.022 111.127 263.397 111.127C263.772 111.127 264.957 112.815 266.03 114.877C270.425 123.321 275.671 132.125 276.294 132.101C276.659 132.087 279.638 127.362 282.914 121.601C286.19 115.84 289.14 111.127 289.469 111.127C289.798 111.127 290.64 114.615 291.339 118.877C293.478 131.919 293.006 131.127 298.646 131.127C303.544 131.127 303.608 131.087 303.032 128.377C301.881 122.964 295.458 87.0349 295.458 86.0079C295.458 82.2519 291.464 88.06 280.801 107.324C278.763 111.007 276.759 113.813 276.349 113.56C275.939 113.307 272.084 106.818 267.781 99.141C260.454 86.068 257.458 82.548 257.458 87.015ZM309.458 108.655V131.183L323.208 130.905L336.958 130.627V126.627V122.627L328.208 122.338L319.458 122.049V117.588V113.127H326.958H334.458V108.627V104.127H326.958H319.458V99.627V95.127H327.958H336.458V90.627V86.127H322.958H309.458V108.655ZM345.275 87.377C345.057 88.065 344.896 98.077 344.918 109.627L344.958 130.627L359.708 130.904L374.458 131.18V126.654V122.127H364.958H355.458V104.127V86.127H350.565C347.529 86.127 345.521 86.601 345.275 87.377ZM128.958 95.0809C120.949 98.3939 118.511 112.147 124.739 118.888C127.105 121.45 133.316 123.448 136.101 122.543C142.273 120.537 143.719 119.536 145.511 116.024C151.7 103.893 140.848 90.1629 128.958 95.0809Z" fill="#093671"/>
<path fill-rule="evenodd" clip-rule="evenodd" d="M73.3547 5.10902C68.4277 7.91902 63.7217 10.778 62.8967 11.463C62.0717 12.149 49.7257 20.537 35.4607 30.105C21.1957 39.672 8.0217 49.043 6.1867 50.928C0.145699 57.132 -0.257293 60.4271 0.088707 100.705C0.436707 141.187 0.535683 141.747 8.22968 146.839L12.2507 149.5L193.574 149.758L374.897 150.016V147.008V144L196.647 143.944C61.2357 143.901 17.5777 143.6 14.9907 142.694C13.1167 142.037 10.6417 140.229 9.49073 138.676C7.45373 135.928 7.39672 134.839 7.39672 98.6761C7.39672 56.4501 7.14671 57.8741 15.6167 51.7681C18.2457 49.8731 30.9107 41.2271 43.7607 32.5541C69.3847 15.2601 67.5217 15.937 74.4037 21.424L77.2417 23.687L53.3187 39.446C40.1617 48.113 28.3247 56.171 27.0147 57.352C25.7037 58.534 23.5707 61.7501 22.2737 64.5001C19.9577 69.4121 19.9157 70.038 19.9067 100.191C19.8997 120.683 20.2477 131.099 20.9537 131.535C21.5347 131.894 23.1097 131.912 24.4537 131.575L26.8967 130.962V100.949C26.8967 67.3231 27.0477 66.4241 33.5847 61.2471C38.2277 57.5701 64.3937 40.13 66.4537 39.34C67.9487 38.766 76.8967 43.5151 76.8967 44.8821C76.8967 45.3211 70.5957 49.8431 62.8947 54.9311C48.1297 64.6851 43.4807 69.1571 41.8557 75.1691C41.2827 77.2881 40.9757 89.9631 41.1297 105.169L41.3967 131.5L44.6467 131.813L47.8967 132.127V105.531C47.8967 76.5991 48.1847 74.7701 53.5237 69.8541C57.2527 66.4201 82.3767 50.0001 83.9017 50.0001C85.2677 50.0001 104.442 62.6931 110.663 67.7151C113.009 69.6101 115.61 72.4781 116.444 74.0911C117.73 76.5781 118.372 76.9241 120.678 76.3701C124.26 75.5121 124.247 75.5311 123.435 72.2971C122.324 67.8681 115.793 62.4681 94.0857 48.0281C71.6017 33.0711 72.6427 34.535 80.9857 29.606C83.6917 28.008 83.7867 28.0531 97.5517 37.4681C105.167 42.6761 114.689 49.0891 118.713 51.7181C129.958 59.0671 136.822 64.851 137.499 67.55C138 69.548 138.74 70.0001 141.505 70.0001C145.634 70.0001 145.883 68.3071 142.608 62.5001C140.449 58.6721 138.683 57.244 122.397 46.159C118.547 43.539 110.222 37.848 103.897 33.513C97.5717 29.178 88.4897 23.019 83.7137 19.828C78.9377 16.636 74.7887 13.634 74.4927 13.156C74.1977 12.677 76.1247 11.105 78.7757 9.66201L83.5967 7.03901L90.9967 12.155C95.0667 14.97 106.722 22.906 116.897 29.791C147.18 50.283 156.303 56.678 158.109 58.678C160.409 61.225 162.897 67.3511 162.897 70.4681C162.897 72.6951 163.318 73.0001 166.397 73.0001C169.391 73.0001 169.897 72.6651 169.897 70.6821C169.897 66.0501 166.855 58.2891 163.663 54.7781C160.026 50.7761 85.9117 0 83.7087 0C82.9407 0 78.2817 2.29902 73.3547 5.10902ZM268.897 161C268.084 162.519 268.136 162.992 269.112 162.968C270.564 162.932 273.897 160.614 273.897 159.64C273.897 158.094 269.865 159.191 268.897 161ZM144.16 165.118C137.615 167.003 135.663 176.92 140.82 182.077C147.351 188.608 159.897 183.954 159.897 175C159.897 172.56 157.616 167.821 155.713 166.308C153.684 164.694 147.752 164.083 144.16 165.118ZM86.8967 175C86.8967 184.943 86.9407 185.133 89.1467 184.82C91.2997 184.514 91.3967 184.091 91.3967 175C91.3967 165.909 91.2997 165.486 89.1467 165.18C86.9407 164.867 86.8967 165.057 86.8967 175ZM103.897 175C103.897 184.255 104.043 185 105.851 185C107.568 185 107.842 184.18 108.101 178.25L108.397 171.5L110.162 177C112.433 184.078 113.239 185.273 115.45 184.848C116.713 184.604 117.933 182.377 119.476 177.499L121.69 170.5L121.793 177.75C121.884 184.11 122.125 185 123.754 185C125.363 185 125.684 183.931 126.16 176.997C126.894 166.28 126.486 165 122.332 165C119.114 165 118.943 165.204 117.317 171C116.391 174.3 115.302 177 114.897 177C114.492 177 113.403 174.3 112.477 171C110.836 165.152 110.706 165 107.345 165H103.897V175ZM170.897 175V185H178.397C184.564 185 186.253 184.644 187.897 183C190.306 180.591 190.444 178.262 188.317 175.912C187.096 174.563 186.983 173.708 187.817 172.149C190.537 167.067 187.793 165 178.326 165H170.897V175ZM201.111 174.75C201.375 183.738 201.553 184.5 203.397 184.5C205.241 184.5 205.419 183.738 205.683 174.75L205.969 165H203.397H200.825L201.111 174.75ZM217.897 174.973V185.084L225.647 184.792C231.739 184.562 233.397 184.179 233.397 183C233.397 181.909 231.897 181.364 227.897 181L222.397 180.5L222.279 173C222.172 166.156 221.975 165.472 220.029 165.18C217.972 164.872 217.897 165.219 217.897 174.973ZM244.897 175C244.897 184.333 245.03 185 246.897 185C248.764 185 248.897 184.333 248.897 175C248.897 165.667 248.764 165 246.897 165C245.03 165 244.897 165.667 244.897 175ZM264.504 171.761C258.236 186.364 258.574 185 261.223 185C262.762 185 263.97 184.136 264.715 182.5C265.687 180.367 266.521 180 270.4 180C274.362 180 275.072 180.33 275.923 182.569C276.645 184.467 277.488 185.049 279.149 184.796C281.921 184.373 281.936 184.446 276.973 173.75C273.302 165.836 272.65 165.001 270.155 165.011C267.706 165.021 267.072 165.778 264.504 171.761ZM291.897 175.07C291.897 184.94 291.941 185.133 294.147 184.82C295.914 184.569 296.466 183.748 296.718 181C297.239 175.326 298.49 175.211 303.254 180.399C306.419 183.847 308.251 185.08 309.849 184.837C312.038 184.503 312.031 184.459 309.108 180.437L306.156 176.374L308.526 174.263C311.422 171.684 311.527 169.63 308.897 167C307.253 165.356 305.564 165 299.397 165H291.897V175.07ZM322.586 174.25C322.69 179.337 322.802 183.837 322.836 184.25C322.87 184.663 323.797 185 324.897 185C326.764 185 326.897 184.333 326.897 175C326.897 165.296 326.83 165 324.647 165C322.462 164.999 322.402 165.267 322.586 174.25ZM341.04 174.409C338.761 179.584 336.897 184.084 336.897 184.409C336.897 186.077 340.884 184.669 342.305 182.5C343.634 180.472 344.759 180 348.26 180C351.893 180 352.756 180.395 353.715 182.5C354.749 184.769 358.874 186.158 358.912 184.25C358.92 183.837 357.055 179.337 354.766 174.25C351.001 165.881 350.347 165 347.894 165C345.431 165 344.803 165.863 341.04 174.409ZM144.759 169.018C142.578 170.291 141.668 174.268 142.847 177.37C145.513 184.38 154.897 182.21 154.897 174.584C154.897 169.208 149.503 166.247 144.759 169.018ZM174.897 168.918C174.897 171.461 176.356 172.999 178.754 172.985C182.309 172.964 184.322 171.551 183.574 169.601C182.906 167.86 174.897 167.23 174.897 168.918ZM296.674 168.697C295.32 171.37 296.575 172.5 300.897 172.5C304.73 172.5 305.397 172.204 305.397 170.5C305.397 168.869 304.629 168.444 301.239 168.197C298.952 168.03 296.898 168.255 296.674 168.697ZM269.022 171.766C267.172 175.223 267.639 177 270.397 177C273.184 177 273.477 175.675 271.487 172.082C270.149 169.668 270.145 169.667 269.022 171.766ZM345.995 173.149C345.391 174.881 344.897 176.456 344.897 176.649C344.897 176.842 346.295 177 348.004 177C350.571 177 350.986 176.696 350.391 175.25C349.994 174.288 349.444 172.712 349.167 171.75C348.409 169.113 347.219 169.637 345.995 173.149ZM174.897 178.5C174.897 180.989 175.116 181.096 179.647 180.805C183.629 180.549 184.397 180.177 184.397 178.5C184.397 176.823 183.629 176.451 179.647 176.195C175.116 175.904 174.897 176.011 174.897 178.5Z" fill="#FB5F17"/>
</svg>
